# xmcd CD database file
#
# Track frame offsets:
#	150
#	30882
#	58323
#	76133
#	103472
#	128875
#
# Disc length: 2494 seconds
#
# Revision: 0
# Processed by: cddbd v1.5.2PL0 Copyright (c) Steve Scherf et al.
# Submitted via: CDex 1.70beta2
#
DISCID=4909bc06
DTITLE=tri-nitro - Junky-yard
DYEAR=1900
DGENRE=Jazz
TTITLE0=Inspiration
TTITLE1=6/8
TTITLE2=quick-step Blues
TTITLE3=Iguana
TTITLE4=MONTECARLO!?
TTITLE5=SPAIN
EXTD=
EXTT0=
EXTT1=
EXTT2=
EXTT3=
EXTT4=
EXTT5=
PLAYORDER=
